<svg id="svg" version="1.1" viewBox="0 0 300 300" width="300" height="300" xmlns="http://www.w3.org/2000/svg"><svg xmlns="http://www.w3.org/2000/svg"><defs><clipPath id="clip-1"><rect x="0" y="0" transform="scale(0.14648,0.14648)" width="2048" height="2048" fill="none"/></clipPath><linearGradient x1="154.95117" y1="171.40723" x2="133.83311" y2="126.80493" gradientUnits="userSpaceOnUse" id="color-1"><stop offset="0" stop-color="#4f87ff"/><stop offset="1" stop-color="#48a4ff"/></linearGradient></defs><g clip-path="url(#clip-1)" fill="none" fill-rule="nonzero" stroke="none" stroke-width="1" stroke-linecap="butt" stroke-linejoin="miter" stroke-miterlimit="10" stroke-dasharray="" stroke-dashoffset="0" font-family="none" font-weight="none" font-size="none" text-anchor="none" style="mix-blend-mode: normal"><path d="M128.02588,128.77925l7.57324,-0.01714c5.88896,8.93086 11.99268,17.77354 17.64697,26.8541c-0.13184,-8.93262 -0.01318,-17.88662 -0.01465,-26.82158c2.62646,-0.05215 5.26025,-0.01553 7.88672,-0.01992c-0.15088,3.97676 -0.04102,7.99043 -0.03809,11.9707l0.00732,21.02461c0.00146,1.18066 0.21094,7.03271 0.00439,7.65527c-0.0249,0.07617 -0.09375,0.12891 -0.13916,0.19336l-7.1499,-0.02051c-5.96191,-8.93848 -11.96895,-17.84766 -18.02153,-26.72637c0.15073,8.91533 -0.02285,17.8333 0.13037,26.74834l-7.94238,0.00586c0.21021,-4.79297 0.04585,-9.64893 0.04307,-14.45068z" fill="url(#color-1)"/><path d="M105.29648,139.10215c8.68301,-1.22329 16.71006,4.83398 17.91592,13.51992c1.20586,8.68506 -4.86738,16.69922 -13.55537,17.88867c-8.66323,1.18506 -16.65044,-4.86768 -17.85293,-13.52783c-1.20249,-8.66162 4.83384,-16.66084 13.49238,-17.88076zM109.18813,163.10742c4.60283,-0.97266 7.55098,-5.48584 6.59136,-10.09131c-0.95962,-4.60547 -5.46504,-7.56592 -10.07314,-6.61904c-4.62598,0.9501 -7.60063,5.47793 -6.63721,10.10098c0.96328,4.62305 5.49829,7.58496 10.11899,6.60938z" fill="#528afe"/><path d="M180.13916,139.13555c8.67041,-1.23413 16.69189,4.81392 17.8916,13.48945c1.19971,8.6748 -4.87939,16.67285 -13.55859,17.83887c-8.63232,1.16016 -16.57617,-4.87939 -17.77002,-13.50586c-1.19238,-8.62793 4.81348,-16.59536 13.43701,-17.82246zM183.90088,163.19971c4.68457,-0.87451 7.75781,-5.39941 6.84229,-10.07666c-0.91553,-4.67725 -5.46973,-7.70947 -10.13818,-6.75132c-4.6084,0.94614 -7.59375,5.42856 -6.68994,10.04722c0.90381,4.61719 5.35986,7.64209 9.98584,6.78076z" fill="#528afe"/><path d="M28.73804,128.79595c8.88911,-0.16772 17.81733,-0.02065 26.70923,-0.01304c-0.05757,2.47617 0.01699,4.9623 0.04585,7.43906l-19.05352,-0.00015c0.02637,2.92075 0.13008,5.90669 -0.0457,8.8207l16.91382,-0.01538c-0.03794,2.51924 -0.03325,5.03877 0.01406,7.55684c-5.61709,-0.23291 -11.28105,-0.01611 -16.90532,-0.02051c0.12349,3.16553 0.0312,6.37354 0.03955,9.54346c6.2644,-0.3252 12.75176,-0.09229 19.03521,-0.03369c-0.01948,2.51367 -0.00996,5.02881 0.02827,7.54395l-26.80122,0.01318c0.2209,-4.54541 0.03223,-9.19629 0.03398,-13.75488z" fill="#528afe"/><path d="M256.73438,139.21318c0.81592,-0.07866 1.65234,-0.09858 2.47119,-0.08862c3.55957,0.04307 7.02393,1.63667 9.49658,4.17275c3.90674,4.00737 4.3667,8.69487 4.30078,14.01958l-21.77783,-0.02051c0.4043,1.80322 1.13818,3.45117 2.57666,4.67139c1.64502,1.38135 3.78809,2.01855 5.91943,1.76074c2.31885,-0.26514 3.82764,-1.3667 5.21338,-3.14941c1.69775,-0.05566 3.41016,-0.01611 5.10938,-0.01904l2.66162,0.01611c-0.47461,1.54834 -1.13379,3.05273 -2.08594,4.36816c-2.1416,2.96338 -5.53564,4.84131 -9.11426,5.4126c-4.04736,0.646 -8.15479,-0.2168 -11.46533,-2.66016c-3.30176,-2.4375 -5.37598,-6.13623 -5.9751,-10.1748c-0.646,-4.34326 0.24609,-9.16992 2.9209,-12.7166c2.37305,-3.14619 5.86963,-5.0707 9.74854,-5.59219zM251.4668,151.47949l9.01904,-0.00732l4.89844,-0.00146c-0.7749,-1.97607 -1.78711,-3.77344 -3.81592,-4.70215c-1.56152,-0.71484 -3.15967,-0.62769 -4.8252,-0.53921c-1.94385,0.49526 -3.35156,1.47524 -4.41357,3.20962c-0.40283,0.65625 -0.64746,1.30811 -0.86279,2.04053z" fill="#528afe"/><path d="M72.12056,139.21289c3.1752,-0.38672 6.82866,0.13696 9.67207,1.62979c3.91436,2.05488 5.99341,5.30493 7.2772,9.43271l-7.80952,0.00586c-0.50259,-0.73828 -1.06641,-1.45898 -1.73203,-2.05957c-1.71958,-1.5498 -3.79087,-2.18496 -6.07529,-2.05283c-2.10469,0.12158 -4.01045,1.0377 -5.38403,2.64316c-1.53354,1.79297 -2.29131,4.28467 -2.08623,6.62695c0.20479,2.34082 1.19927,4.59668 3.0624,6.08936c2.72285,2.18115 6.95933,2.36719 9.76758,0.25049c0.94893,-0.71631 1.53486,-1.80908 2.4397,-2.52246c0.3104,-0.24463 0.63662,-0.20947 1.01514,-0.24609c2.30288,-0.0498 4.62187,-0.0791 6.923,0.03662c-0.53862,1.98486 -1.26211,3.84814 -2.48965,5.5166c-2.39868,3.25928 -6.04014,5.25146 -10.01631,5.80957c-4.29844,0.60498 -8.66001,-0.4043 -12.13286,-3.03076c-3.23394,-2.44482 -5.26099,-6.00879 -5.80635,-10.0166c-0.59854,-4.40039 0.28726,-8.92822 3.03926,-12.47476c2.57505,-3.31787 6.21343,-5.11055 10.33594,-5.63804z" fill="#528afe"/><path d="M226.36377,139.20776c3.49219,-0.1793 6.71484,0.03853 9.73389,1.99131c2.74219,1.77363 3.70752,4.26079 4.38574,7.32583l-7.20703,0.01025c-0.20215,-0.38086 -0.43066,-0.75732 -0.7207,-1.07959c-1.07959,-1.19575 -2.81836,-1.60503 -4.37109,-1.62598c-1.37402,-0.0186 -3.00439,0.24668 -4.00195,1.27881c-0.31641,0.32813 -0.56689,0.77637 -0.52295,1.24805c0.08936,0.95215 1.08398,1.64355 1.87793,2.00391c4.04883,1.83838 9.4541,1.37842 12.86865,4.62891c1.43115,1.3623 2.01709,3.26074 2.08887,5.18994c0.09521,2.58398 -0.67236,4.84131 -2.45215,6.7251c-2.55029,2.69824 -5.95752,3.55957 -9.56104,3.63428c-3.13037,-0.01172 -6.2959,-0.5918 -8.86377,-2.4917c-2.60889,-1.9292 -3.82178,-4.26709 -4.29492,-7.43848c2.32471,-0.14648 4.7168,-0.04395 7.04736,-0.04687c0.87598,1.40186 1.77246,2.51074 3.41016,3.05566c1.53516,0.50977 3.78369,0.61816 5.23682,-0.15967c0.54199,-0.28857 1.25537,-0.60645 1.65088,-1.08545c0.39111,-0.47461 0.50098,-1.13232 0.39697,-1.72852c-0.14795,-0.83643 -0.88184,-1.3667 -1.59375,-1.72266c-1.05762,-0.52881 -2.24414,-0.76758 -3.38379,-1.05322c-3.04541,-0.76465 -6.48926,-1.44434 -9.08496,-3.29443c-1.4502,-1.03271 -2.48145,-2.39795 -2.75391,-4.18799c-0.35449,-2.32617 0.32227,-4.87515 1.71533,-6.76172c1.99072,-2.69224 5.18408,-3.94482 8.39941,-4.41577z" fill="#528afe"/><path d="M202.19238,139.75283l7.85596,0.00278c-0.13477,7.82446 -0.00439,15.66724 -0.03076,23.4939c-0.00586,1.85303 0.11572,3.74561 0.06299,5.58984c-0.00732,0.29443 -0.03076,0.48047 -0.18896,0.73975l-0.52881,0.03662l-7.21143,0.01758c0.24463,-3.4541 0.07617,-7.02539 0.07617,-10.49268z" fill="#528afe"/><path d="M204.92139,127.46602c2.40527,-0.65933 4.88818,0.7689 5.52686,3.18003c0.63867,2.41128 -0.81152,4.88057 -3.22852,5.49844c-2.3877,0.61025 -4.81934,-0.81797 -5.45068,-3.19995c-0.63135,-2.38198 0.77637,-4.82725 3.15234,-5.47852z" fill="#528afe"/></g></svg></svg>