<svg id="svg" version="1.1" viewBox="0 0 300 300" width="300" height="300" xmlns="http://www.w3.org/2000/svg"><svg xmlns="http://www.w3.org/2000/svg"><defs><clipPath id="clip-1"><rect x="0" y="0" transform="scale(0.14648,0.14648)" width="2048" height="2048" fill="none"/></clipPath><linearGradient x1="216.69434" y1="176.5708" x2="73.68691" y2="84.78911" gradientUnits="userSpaceOnUse" id="color-1"><stop offset="0" stop-color="#6772fe"/><stop offset="1" stop-color="#3badff"/></linearGradient><linearGradient x1="205.19531" y1="164.37891" x2="89.21323" y2="99.63237" gradientUnits="userSpaceOnUse" id="color-2"><stop offset="0" stop-color="#6377ff"/><stop offset="1" stop-color="#42a4ff"/></linearGradient><linearGradient x1="215.10059" y1="200.97656" x2="174.70752" y2="173.31006" gradientUnits="userSpaceOnUse" id="color-3"><stop offset="0" stop-color="#5f78ff"/><stop offset="1" stop-color="#41a3ff"/></linearGradient><linearGradient x1="193.2876" y1="153.26221" x2="105.80933" y2="113.18188" gradientUnits="userSpaceOnUse" id="color-4"><stop offset="0" stop-color="#5e7cff"/><stop offset="1" stop-color="#479eff"/></linearGradient><linearGradient x1="172.50879" y1="137.9729" x2="127.35776" y2="128.12813" gradientUnits="userSpaceOnUse" id="color-5"><stop offset="0" stop-color="#5781ff"/><stop offset="1" stop-color="#3baeff"/></linearGradient></defs><g clip-path="url(#clip-1)" fill="none" fill-rule="nonzero" stroke="none" stroke-width="1" stroke-linecap="butt" stroke-linejoin="miter" stroke-miterlimit="10" stroke-dasharray="" stroke-dashoffset="0" font-family="none" font-weight="none" font-size="none" text-anchor="none" style="mix-blend-mode: normal"><path d="M145.2189,42.39639c4.33726,-0.38745 8.99253,0.02578 13.31528,0.45132c23.24707,2.28853 46.69775,14.57505 61.52783,32.68608c11.8667,14.58926 19.03418,32.42988 20.56348,51.17285c0.34863,3.82896 0.71484,8.22114 0.30469,12.0356c-0.1377,1.27705 -0.65186,2.39341 -1.6875,3.19072c-1.13965,0.877 -2.65137,1.15986 -4.05615,0.94937c-0.16699,-0.02505 -0.33252,-0.05757 -0.49658,-0.09756c-0.2417,-0.05859 -0.47754,-0.13418 -0.70605,-0.22617c-4.00049,-1.6062 -3.08496,-6.08774 -3.09521,-9.5105c-0.15967,-17.24692 -5.94727,-33.96987 -16.48389,-47.62559c-12.84082,-16.83179 -33.11133,-28.86709 -54.13477,-31.65952c-20.81235,-2.95635 -41.93423,2.6458 -58.54526,15.52793c-17.20811,12.93647 -28.53809,32.20884 -31.47334,53.53623c-1.03359,6.97412 -0.88711,14.43926 0.06606,21.41455c4.30474,31.50293 24.23892,55.21875 54.07925,65.8125c3.05537,1.08398 6.23906,2.0625 9.41323,2.72314c2.04346,0.4248 4.19707,0.61523 6.19922,1.18799c0.79761,0.22705 1.5665,0.55225 2.21909,1.07227c1.00752,0.8042 1.64253,1.92773 1.74346,3.21826c0.09478,1.21143 -0.30337,2.63672 -1.09907,3.56543c-0.9895,1.1543 -2.56113,1.78857 -4.06099,1.86475c-2.71362,0.13623 -6.72627,-0.72803 -9.42642,-1.34033c-15.30381,-3.55957 -29.42915,-11.01123 -41.0083,-21.63281c-16.81289,-15.21387 -27.40796,-38.3042 -28.51392,-60.91479c-0.34614,-7.07812 -0.16934,-14.1728 0.91772,-21.18369c2.77222,-17.22188 10.43042,-33.28594 22.06465,-46.28306c16.1981,-17.84575 38.23799,-28.76836 62.37349,-29.93496z" fill="url(#color-1)"/><path d="M145.83296,63.78105c1.16118,-0.1311 2.41948,-0.07134 3.59136,-0.0728c18.01465,-0.02256 36.07178,6.74766 48.88477,19.56914c14.19873,14.20796 21.33691,33.01816 21.30908,53.04023c-0.00293,1.92173 0.10693,3.88418 -1.41504,5.3187c-1.04004,0.98203 -2.49756,1.37915 -3.90527,1.28203c-2.04785,-0.14121 -3.90234,-1.44082 -4.43994,-3.47476c-0.6123,-2.31826 -0.13916,-8.30889 -0.39258,-11.23667c-1.11328,-12.91362 -6.8584,-25.25171 -15.48633,-34.86035c-10.37695,-11.46021 -24.84229,-18.38496 -40.27734,-19.28232c-16.01338,-1.01616 -31.7584,4.48198 -43.65894,15.2458c-10.84131,9.75278 -18.79468,24.47637 -19.56182,39.19248c-0.45234,5.30156 -0.21987,10.63916 0.6917,15.88125c3.91157,22.49121 20.50854,40.28027 42.2915,46.74756c1.51436,0.44971 3.03984,0.87012 4.5917,1.17041c2.28428,0.44092 7.0998,0.58887 8.81675,1.89551c0.99756,0.76025 1.59961,2.16064 1.75488,3.37646c0.16113,1.24805 -0.16406,2.60742 -0.97852,3.58154c-0.88037,1.05029 -2.25483,1.90576 -3.62944,2.01855c-2.7832,0.22998 -6.17388,-0.50977 -8.87622,-1.14551c-11.59541,-2.65137 -22.35381,-8.13281 -31.31499,-15.95508c-14.08491,-12.36768 -22.15151,-29.22949 -23.32266,-47.87812c-1.33755,-18.64761 4.88936,-37.04824 17.27607,-51.05142c12.66885,-14.31738 28.99922,-22.19106 48.05127,-23.36265z" fill="url(#color-2)"/><path d="M231.93018,156.23145c1.86182,-0.1084 3.74707,-0.08936 5.61475,-0.12158c-0.50537,3.55225 -1.59668,7.24512 -2.71582,10.65674c-5.11963,15.60059 -14.47998,29.46973 -27.03223,40.05322c-13.62158,11.53564 -30.28271,18.09375 -48.25635,16.59082c7.54688,-19.36963 21.99756,-32.53564 39.77051,-42.5918c1.98486,-1.09424 4.02246,-2.16064 6.09375,-3.08643c-5.92676,0.70605 -13.49268,4.06641 -18.71045,6.97119c-10.57178,5.88867 -19.53809,13.47217 -25.99805,23.80078c-1.66846,2.66748 -3.34424,5.55615 -4.21289,8.59424l-0.04248,-0.63428c-0.02344,-0.33105 -0.04834,-0.66064 -0.0542,-0.99316c-0.24756,-13.26709 5.34814,-26.13281 14.43457,-35.67773c15.79248,-16.58789 38.7876,-22.98486 61.10889,-23.56201z" fill="url(#color-3)"/><path d="M148.28613,84.44414c12.60498,0.00088 24.54932,3.67412 33.91406,12.42568c9.41016,8.89893 15.19922,20.96177 16.25537,33.87012c0.35742,4.05073 0.1333,8.11729 0.27832,12.17373c-1.72266,-0.08291 -3.44238,0.02959 -5.16504,0.01538c-1.81494,-0.01494 -3.73096,-0.76963 -4.47803,-2.5626c-0.86426,-2.071 -0.41016,-5.1353 -0.47754,-7.36655c-0.31494,-10.43877 -3.83057,-19.67461 -11.29102,-27.1418c-7.36084,-7.25127 -17.2998,-11.28281 -27.63135,-11.20854c-10.14536,-0.03677 -19.87939,4.00679 -27.01245,11.221c-8.21895,8.40923 -11.59819,18.46069 -11.48481,30.0438c0.00278,0.4563 0.02344,0.91245 0.06167,1.36729c1.08311,13.33652 8.17881,23.86289 19.91001,30.17197c3.10723,1.66992 6.51475,3.09668 9.95083,3.92285c1.71387,0.40869 3.44795,0.7251 5.19507,0.95215c1.30254,0.17432 2.70146,0.22412 3.9583,0.60791c0.68555,0.20801 1.31396,0.52002 1.8501,1.00195c0.9873,0.88623 1.53662,2.18408 1.604,3.49805c0.07617,1.40332 -0.42773,2.77588 -1.3916,3.79834c-1.05029,1.13086 -2.24414,1.49268 -3.75293,1.52344c-11.29497,0.22412 -24.73608,-6.44678 -32.78188,-14.12109c-9.11616,-8.64258 -14.40923,-20.56348 -14.70615,-33.12202c-0.25474,-13.4124 4.771,-27.01187 14.13032,-36.69243c8.66484,-9.00835 20.56772,-14.18437 33.06475,-14.37861z" fill="url(#color-4)"/><path d="M159.51563,111.18325c3.25049,-0.07954 6.51416,-0.04351 9.76465,-0.00776c-0.29443,4.64385 -0.04248,9.99316 -0.03955,14.73574l0.0293,29.0502l-0.0835,0.20215c-1.06641,0.30908 -8.22803,0.08936 -9.8877,0.09375c-1.72998,-2.44336 -3.27979,-5.04932 -4.91895,-7.55713c-4.66699,-7.13613 -9.23818,-14.37187 -14.06836,-21.39697c0.00322,2.36968 0.17417,4.74346 0.1793,7.11885c0.01553,7.27515 -0.11719,14.56963 0.03267,21.84258c-3.28506,-0.04687 -6.5707,-0.04395 -9.85576,0.00879c0.16377,-6.30029 0.03032,-12.63384 0.02988,-18.93853c-0.00059,-8.38286 0.0895,-16.77539 -0.01875,-25.15708c3.65933,-0.03721 7.3188,-0.04087 10.97812,-0.01113c1.61147,2.19961 3.00454,4.66772 4.4748,6.9687c2.94829,4.60898 5.86919,9.23481 8.76372,13.87734c1.56738,2.53711 3.0293,5.4564 4.9043,7.76426c-0.38672,-9.53115 -0.28418,-19.05645 -0.28418,-28.59375z" fill="url(#color-5)"/></g></svg></svg>